# xmcd
#
# Track frame offsets:
#	150
#	12875
#	66951
#	83459
#	122664
#	138544
#	195345
#
# Disc length: 3243 seconds
#
# Revision: 0
# Processed by: cddbd v1.5PL3 Copyright (c) Steve Scherf et al.
# Submitted via: EasyCDDAExtractor 4.5.0.2
#
DISCID=520ca907
DTITLE=хыдг ежг - аисхглатайи лоу
DYEAR=1900
DGENRE=Freestyle
TTITLE0=аисхглатайи лоу
TTITLE1=о оуяамос йи ам цйялистеи
TTITLE2=лакыса ле тгм йаядиа лоу
TTITLE3=йоье йати 
TTITLE4=жтиане ле лыяо лоу
TTITLE5=есема хекы ломо
TTITLE6=цаяужакитса
EXTD=
EXTT0=
EXTT1=
EXTT2=
EXTT3=
EXTT4=
EXTT5=
EXTT6=
PLAYORDER=
